<svg width="49" height="49" viewBox="0 0 49 49" fill="none" xmlns="http://www.w3.org/2000/svg">
<rect x="0.5" y="0.639648" width="48" height="48" rx="24" fill="white"/>
<path d="M18.62 10.6396H30.38C34.86 10.6396 38.5 14.2796 38.5 18.7596V30.5196C38.5 32.6732 37.6445 34.7386 36.1217 36.2614C34.5989 37.7842 32.5336 38.6396 30.38 38.6396H18.62C14.14 38.6396 10.5 34.9996 10.5 30.5196V18.7596C10.5 16.6061 11.3555 14.5407 12.8783 13.0179C14.4011 11.4951 16.4664 10.6396 18.62 10.6396ZM18.34 13.4396C17.0033 13.4396 15.7214 13.9706 14.7762 14.9158C13.831 15.861 13.3 17.143 13.3 18.4796V30.7996C13.3 33.5856 15.554 35.8396 18.34 35.8396H30.66C31.9967 35.8396 33.2786 35.3087 34.2238 34.3635C35.169 33.4183 35.7 32.1363 35.7 30.7996V18.4796C35.7 15.6936 33.446 13.4396 30.66 13.4396H18.34ZM31.85 15.5396C32.3141 15.5396 32.7592 15.724 33.0874 16.0522C33.4156 16.3804 33.6 16.8255 33.6 17.2896C33.6 17.7538 33.4156 18.1989 33.0874 18.5271C32.7592 18.8553 32.3141 19.0396 31.85 19.0396C31.3859 19.0396 30.9408 18.8553 30.6126 18.5271C30.2844 18.1989 30.1 17.7538 30.1 17.2896C30.1 16.8255 30.2844 16.3804 30.6126 16.0522C30.9408 15.724 31.3859 15.5396 31.85 15.5396ZM24.5 17.6396C26.3565 17.6396 28.137 18.3771 29.4497 19.6899C30.7625 21.0027 31.5 22.7831 31.5 24.6396C31.5 26.4962 30.7625 28.2766 29.4497 29.5894C28.137 30.9022 26.3565 31.6396 24.5 31.6396C22.6435 31.6396 20.863 30.9022 19.5503 29.5894C18.2375 28.2766 17.5 26.4962 17.5 24.6396C17.5 22.7831 18.2375 21.0027 19.5503 19.6899C20.863 18.3771 22.6435 17.6396 24.5 17.6396ZM24.5 20.4396C23.3861 20.4396 22.3178 20.8821 21.5302 21.6698C20.7425 22.4575 20.3 23.5257 20.3 24.6396C20.3 25.7536 20.7425 26.8218 21.5302 27.6095C22.3178 28.3971 23.3861 28.8396 24.5 28.8396C25.6139 28.8396 26.6822 28.3971 27.4698 27.6095C28.2575 26.8218 28.7 25.7536 28.7 24.6396C28.7 23.5257 28.2575 22.4575 27.4698 21.6698C26.6822 20.8821 25.6139 20.4396 24.5 20.4396Z" fill="#202020"/>
</svg>
