<svg width="49" height="49" viewBox="0 0 49 49" fill="none" xmlns="http://www.w3.org/2000/svg">
<g clip-path="url(#clip0_31_266)">
<path d="M24.5 0.639648C11.2451 0.639648 0.5 11.3847 0.5 24.6396C0.5 37.8946 11.2451 48.6396 24.5 48.6396C37.7549 48.6396 48.5 37.8946 48.5 24.6396C48.5 11.3847 37.7549 0.639648 24.5 0.639648Z" fill="white"/>
<path d="M36.178 14.4456L31.8914 36.0581C31.8914 36.0581 31.2919 37.557 29.6433 36.8376L19.7511 29.2536L16.1541 27.5151L10.099 25.4766C10.099 25.4766 9.16975 25.147 9.07975 24.4275C8.98994 23.7081 10.129 23.3185 10.129 23.3185L34.1995 13.876C34.1995 13.876 36.178 13.0067 36.178 14.4456Z" fill="#222222"/>
<path d="M18.9909 35.8151C18.9909 35.8151 18.7021 35.7881 18.3423 34.6489C17.9827 33.5098 16.1542 27.5147 16.1542 27.5147L30.6924 18.2822C30.6924 18.2822 31.5318 17.7725 31.5018 18.2822C31.5018 18.2822 31.6516 18.372 31.202 18.7916C30.7524 19.2114 19.7812 29.0734 19.7812 29.0734" fill="#6A6A6A"/>
<path d="M23.544 32.1614L19.6312 35.7288C19.6312 35.7288 19.3254 35.9609 18.9907 35.8154L19.74 29.189" fill="#3A3A3A"/>
</g>
<defs>
<clipPath id="clip0_31_266">
<rect x="0.5" y="0.639648" width="48" height="48" rx="24" fill="white"/>
</clipPath>
</defs>
</svg>
