<svg width="116" height="116" viewBox="0 0 116 116" fill="none" xmlns="http://www.w3.org/2000/svg">
<path d="M33.75 63.0288C36.4901 65.592 38.5672 66.1666 39.9814 64.7524C40.0698 64.664 40.1729 64.5608 40.2908 64.443L45.4615 59.2723L40.335 54.1458C40.2466 53.9984 40.1287 53.8511 39.9814 53.7038C38.685 52.4074 36.6079 53.0114 33.75 55.5158L35.8713 22.6353L58.7639 45.9698L79.9771 24.7566L85.0153 57.1951C84.6617 56.7827 84.3229 56.4144 83.9988 56.0903C81.1115 53.2029 78.5482 52.8789 76.309 55.118C76.2501 55.1769 76.2059 55.2211 76.1764 55.2506L72.0222 59.4049L76.1764 63.5591C76.2943 63.677 76.4121 63.7948 76.53 63.9127C78.6808 66.0634 81.1704 65.7246 83.9988 62.8962C84.3229 62.5721 84.6617 62.2038 85.0153 61.7913L79.8446 94.2741L58.7197 72.7073L37.6391 93.7878L33.75 63.0288Z" fill="white"/>
</svg>
