<svg width="49" height="49" viewBox="0 0 49 49" fill="none" xmlns="http://www.w3.org/2000/svg">
<g clip-path="url(#clip0_31_272)">
<rect x="0.5" y="0.639648" width="48" height="48" rx="24" fill="#0D0D0D"/>
<path d="M24.5 0.639648C11.245 0.639648 0.5 11.3846 0.5 24.6396C0.5 37.8946 11.245 48.6397 24.5 48.6397C37.755 48.6397 48.5 37.8946 48.5 24.6396C48.5 11.3846 37.755 0.639648 24.5 0.639648ZM33.73 27.7171C33.73 27.7171 35.8525 29.8121 36.375 30.7846C36.39 30.8046 36.3975 30.8246 36.4025 30.8346C36.615 31.1921 36.665 31.4696 36.56 31.6771C36.385 32.0221 35.785 32.1922 35.58 32.2072H31.83C31.57 32.2072 31.025 32.1396 30.365 31.6846C29.8575 31.3296 29.3575 30.7471 28.87 30.1796C28.1425 29.3346 27.5125 28.6047 26.8775 28.6047C26.7968 28.6045 26.7167 28.6172 26.64 28.6421C26.16 28.7971 25.545 29.4821 25.545 31.3071C25.545 31.8771 25.095 32.2046 24.7775 32.2046H23.06C22.475 32.2046 19.4275 31.9997 16.7275 29.1522C13.4225 25.6647 10.4475 18.6696 10.4225 18.6046C10.235 18.1521 10.6225 17.9096 11.045 17.9096H14.8325C15.3375 17.9096 15.5025 18.2171 15.6175 18.4896C15.7525 18.8071 16.2475 20.0696 17.06 21.4896C18.3775 23.8046 19.185 24.7446 19.8325 24.7446C19.9539 24.7432 20.0732 24.7123 20.18 24.6546C21.025 24.1846 20.8675 21.1721 20.83 20.5471C20.83 20.4296 20.8275 19.1996 20.395 18.6096C20.085 18.1821 19.5575 18.0196 19.2375 17.9596C19.367 17.7809 19.5377 17.636 19.735 17.5371C20.315 17.2471 21.36 17.2046 22.3975 17.2046H22.975C24.1 17.2196 24.39 17.2921 24.7975 17.3946C25.6225 17.5921 25.64 18.1246 25.5675 19.9471C25.545 20.4646 25.5225 21.0496 25.5225 21.7396C25.5225 21.8896 25.515 22.0496 25.515 22.2196C25.49 23.1471 25.46 24.1996 26.115 24.6321C26.2004 24.6857 26.2992 24.7143 26.4 24.7146C26.6275 24.7146 27.3125 24.7146 29.1675 21.5321C29.7396 20.5078 30.2367 19.4433 30.655 18.3471C30.6925 18.2821 30.8025 18.0821 30.9325 18.0046C31.0284 17.9557 31.1348 17.9309 31.2425 17.9321H35.695C36.18 17.9321 36.5125 18.0046 36.575 18.1921C36.685 18.4896 36.555 19.3971 34.5225 22.1496L33.615 23.3471C31.7725 25.7621 31.7725 25.8846 33.73 27.7171Z" fill="white"/>
</g>
<defs>
<clipPath id="clip0_31_272">
<rect x="0.5" y="0.639648" width="48" height="48" rx="24" fill="white"/>
</clipPath>
</defs>
</svg>
