<svg width="49" height="49" viewBox="0 0 49 49" fill="none" xmlns="http://www.w3.org/2000/svg">
<rect x="0.5" y="0.639648" width="48" height="48" rx="24" fill="white"/>
<path d="M21.7 28.4968L28.966 24.6396L21.7 20.7825V28.4968ZM37.884 18.4296C38.066 19.0339 38.192 19.8439 38.276 20.8725C38.374 21.9011 38.416 22.7882 38.416 23.5596L38.5 24.6396C38.5 27.4554 38.276 29.5254 37.884 30.8496C37.534 32.0068 36.722 32.7525 35.462 33.0739C34.804 33.2411 33.6 33.3568 31.752 33.4339C29.932 33.5239 28.266 33.5625 26.726 33.5625L24.5 33.6396C18.634 33.6396 14.98 33.4339 13.538 33.0739C12.278 32.7525 11.466 32.0068 11.116 30.8496C10.934 30.2454 10.808 29.4354 10.724 28.4068C10.626 27.3782 10.584 26.4911 10.584 25.7196L10.5 24.6396C10.5 21.8239 10.724 19.7539 11.116 18.4296C11.466 17.2725 12.278 16.5268 13.538 16.2054C14.196 16.0382 15.4 15.9225 17.248 15.8454C19.068 15.7554 20.734 15.7168 22.274 15.7168L24.5 15.6396C30.366 15.6396 34.02 15.8454 35.462 16.2054C36.722 16.5268 37.534 17.2725 37.884 18.4296Z" fill="black"/>
</svg>
